<?xml version="1.0" encoding="UTF-8" standalone="no"?>
<!DOCTYPE svg PUBLIC "-//W3C//DTD SVG 1.1//EN" "http://www.w3.org/Graphics/SVG/1.1/DTD/svg11.dtd">
<svg width="100%" height="100%" viewBox="0 0 350 208" version="1.1" xmlns="http://www.w3.org/2000/svg" xmlns:xlink="http://www.w3.org/1999/xlink" xml:space="preserve" xmlns:serif="http://www.serif.com/" style="fill-rule:evenodd;clip-rule:evenodd;">
    <g id="path6" transform="matrix(1,0,0,1,67.5,29.4535)">
        <path d="M51.5,8.7C56.1,7 61.2,7.7 66,7.5L152,7.5C157.9,7 164.5,7.7 168.9,12.1C177.9,21.1 186.9,30.1 195.9,39.1C199,42.3 202.7,45.2 204.3,49.5C205.5,52.5 205.7,55.8 205.8,59C205.8,74 205.8,89 205.9,104C206,110.7 206.5,117.7 203.8,123.9C202,127.3 200.3,130.9 197.2,133.3C193.1,136.4 188.3,138.9 183,139.3C178.4,139.6 173.7,139.5 169,139.5C124.7,139.6 80.3,139.6 35.9,139.6C26.1,139.8 16.2,134 12.1,124.9C10.5,121.1 9.7,117.1 9.7,113C9.6,94 9.8,75 9.5,56C9.5,51.4 11.3,46.8 14.6,43.6C22.1,36.1 29.6,28.6 37,21.1C41.7,16.8 45.5,11.2 51.5,8.7Z" style="fill:rgb(6,6,6);fill-rule:nonzero;stroke:rgb(6,6,6);stroke-width:0.09px;"/>
    </g>
    <g id="path8" transform="matrix(1,0,0,1,67.5,29.4535)">
        <path d="M53.4,10.7C56.9,9.7 60.5,10.1 64,9.9C94,9.9 124,9.9 154,9.8C157.9,9.8 162.2,10.2 165.5,12.5C169.6,15.4 172.7,19.3 176.3,22.7C183.2,29.4 189.9,36.5 196.7,43.2C200.2,46.6 203.4,50.9 203.3,56C203.5,75.3 203.6,94.7 203.5,114C203.8,125.6 193.8,136.6 182.1,137C135.7,136.9 89.4,137.3 43,137.1C36.5,137.2 29.5,137.8 23.8,134.2C16,129.8 11.3,120.8 11.8,112C11.9,94 11.8,76 11.7,58C11.6,53.9 12.5,49.5 15.4,46.4C26,35.7 36.5,24.9 47.3,14.3C49,12.6 51.1,11.4 53.4,10.7Z" style="fill-rule:nonzero;stroke:white;stroke-width:0.09px;"/>
    </g>
    <g id="path10" transform="matrix(1,0,0,1,67.5,29.4535)">
        <path d="M98.2,40.1C104.4,39.8 110.6,40 116.9,40C116.9,51.6 116.8,63.2 116.9,74.8C110.7,75.1 104.6,75 98.4,74.7C98.5,63.2 98.3,51.6 98.2,40.1Z" style="fill:white;fill-rule:nonzero;stroke:rgb(6,6,6);stroke-width:0.09px;"/>
    </g>
    <g id="path12" transform="matrix(1,0,0,1,67.5,29.4535)">
        <path d="M100.5,42.6C105.2,42.3 109.8,42.3 114.5,42.5C114.5,52.5 114.7,62.5 114.5,72.5C109.9,72.6 105.2,72.6 100.6,72.5C100.4,62.5 100.4,52.6 100.5,42.6Z" style="fill:white;fill-opacity:0;fill-rule:nonzero;stroke:white;stroke-opacity:0;stroke-width:0.09px;"/>
    </g>
    <g id="path14" transform="matrix(1,0,0,1,67.5,29.4535)">
        <path d="M41.8,72.7C48,72.7 54.1,72.5 60.3,72.6C60.4,84.1 60.4,95.5 60.4,106.9C54.2,107.3 48.1,107.2 42,107C42,95.6 42.1,84.1 41.8,72.7Z" style="fill:white;fill-rule:nonzero;stroke:rgb(6,6,6);stroke-width:0.09px;"/>
    </g>
    <g id="path16" transform="matrix(1,0,0,1,67.5,29.4535)">
        <path d="M155,72.7C161.1,72.5 167.3,72.6 173.4,72.7C173.3,84.1 173.5,95.6 173.4,107.1C167.3,107.2 161.2,107.1 155.1,107C155.1,95.5 155.4,84.1 155,72.7Z" style="fill:white;fill-rule:nonzero;stroke:rgb(6,6,6);stroke-width:0.09px;"/>
    </g>
    <g id="path18" transform="matrix(1,0,0,1,67.5,29.4535)">
        <path d="M44.1,75.1C48.8,74.7 53.5,75 58.2,75C58.2,85 58.3,94.9 58.2,104.8L44.3,104.8C44.4,94.9 44.2,85 44.1,75.1Z" style="fill:white;fill-opacity:0;fill-rule:nonzero;stroke:white;stroke-opacity:0;stroke-width:0.09px;"/>
    </g>
    <g id="path20" transform="matrix(1,0,0,1,67.5,29.4535)">
        <path d="M157.2,75.1C161.9,74.9 166.5,75 171.2,75C171.4,85 171.4,94.9 171.2,104.8C166.6,104.8 161.9,104.7 157.3,104.8C157.3,94.9 157.4,85 157.2,75.1Z" style="fill:white;fill-opacity:0;fill-rule:nonzero;stroke:white;stroke-opacity:0;stroke-width:0.09px;"/>
    </g>
    <g transform="matrix(0.930085,0,0,0.945946,39.8877,-14.2973)">
        <path d="M263,55.286C263,52.366 260.593,50 257.624,50C225.956,50 64.044,50 32.376,50C29.407,50 27,52.366 27,55.286C27,78.306 27,169.694 27,192.714C27,195.634 29.407,198 32.376,198C64.044,198 225.956,198 257.624,198C260.593,198 263,195.634 263,192.714C263,169.694 263,78.306 263,55.286Z" style="fill:none;stroke:black;stroke-width:1.6px;stroke-linecap:round;stroke-linejoin:round;stroke-miterlimit:1.5;"/>
    </g>
    <g>
        <g transform="matrix(7.18113e-17,-1.17277,0.958758,5.8707e-17,-83.6075,197.408)">
            <path d="M75.598,99.292C78.399,96.269 82.601,96.269 85.402,99.292C99.137,114.121 137,155 137,155L24,155C24,155 61.863,114.121 75.598,99.292Z" style="fill:none;stroke:black;stroke-width:1.4px;stroke-linecap:round;stroke-linejoin:round;stroke-miterlimit:1.5;"/>
        </g>
        <g transform="matrix(1,0,0,1,-2.82496,-8.09313)">
            <circle cx="42.612" cy="111.093" r="13.787" style="fill:none;stroke:black;stroke-width:1.5px;stroke-linecap:round;stroke-linejoin:round;stroke-miterlimit:1.5;"/>
        </g>
        <g transform="matrix(0.671875,-0.671875,0.650703,0.650703,-21.0491,92.3571)">
            <path d="M40.822,49.376L42.556,51.225C42.556,51.225 40.811,53.087 39.796,54.169C39.401,54.59 39.401,55.259 39.796,55.68C40.811,56.762 42.556,58.624 42.556,58.624L40.822,60.473C40.822,60.473 39.13,58.669 38.109,57.58C37.911,57.369 37.638,57.25 37.353,57.25C37.068,57.25 36.795,57.369 36.597,57.58C35.576,58.669 33.884,60.473 33.884,60.473L32.15,58.624C32.15,58.624 33.895,56.762 34.91,55.68C35.305,55.259 35.305,54.59 34.91,54.169C33.895,53.087 32.15,51.225 32.15,51.225L33.884,49.376C33.884,49.376 35.576,51.18 36.597,52.269C36.795,52.48 37.068,52.599 37.353,52.599C37.638,52.599 37.911,52.48 38.109,52.269C39.13,51.18 40.822,49.376 40.822,49.376Z" style="fill:rgb(11,0,0);stroke:black;stroke-width:0.8px;stroke-linecap:round;stroke-linejoin:round;stroke-miterlimit:1.5;"/>
        </g>
    </g>
    <g transform="matrix(-1,-1.22465e-16,1.22465e-16,-1,349.416,206.953)">
        <g transform="matrix(7.18113e-17,-1.17277,0.958758,5.8707e-17,-83.6075,197.408)">
            <path d="M75.598,99.292C78.399,96.269 82.601,96.269 85.402,99.292C99.137,114.121 137,155 137,155L24,155C24,155 61.863,114.121 75.598,99.292Z" style="fill:none;stroke:black;stroke-width:1.4px;stroke-linecap:round;stroke-linejoin:round;stroke-miterlimit:1.5;"/>
        </g>
        <g transform="matrix(1,0,0,1,-2.82496,-8.09313)">
            <circle cx="42.612" cy="111.093" r="13.787" style="fill:none;stroke:black;stroke-width:1.5px;stroke-linecap:round;stroke-linejoin:round;stroke-miterlimit:1.5;"/>
        </g>
        <g transform="matrix(0.671875,-0.671875,0.650703,0.650703,-21.0491,92.3571)">
            <path d="M40.822,49.376L42.556,51.225C42.556,51.225 40.811,53.087 39.796,54.169C39.401,54.59 39.401,55.259 39.796,55.68C40.811,56.762 42.556,58.624 42.556,58.624L40.822,60.473C40.822,60.473 39.13,58.669 38.109,57.58C37.911,57.369 37.638,57.25 37.353,57.25C37.068,57.25 36.795,57.369 36.597,57.58C35.576,58.669 33.884,60.473 33.884,60.473L32.15,58.624C32.15,58.624 33.895,56.762 34.91,55.68C35.305,55.259 35.305,54.59 34.91,54.169C33.895,53.087 32.15,51.225 32.15,51.225L33.884,49.376C33.884,49.376 35.576,51.18 36.597,52.269C36.795,52.48 37.068,52.599 37.353,52.599C37.638,52.599 37.911,52.48 38.109,52.269C39.13,51.18 40.822,49.376 40.822,49.376Z" style="fill:rgb(11,0,0);stroke:black;stroke-width:0.8px;stroke-linecap:round;stroke-linejoin:round;stroke-miterlimit:1.5;"/>
        </g>
    </g>
</svg>
