<?xml version="1.0" encoding="UTF-8" standalone="no"?>
<!DOCTYPE svg PUBLIC "-//W3C//DTD SVG 1.1//EN" "http://www.w3.org/Graphics/SVG/1.1/DTD/svg11.dtd">
<svg width="100%" height="100%" viewBox="0 0 47 47" version="1.1" xmlns="http://www.w3.org/2000/svg" xmlns:xlink="http://www.w3.org/1999/xlink" xml:space="preserve" xmlns:serif="http://www.serif.com/" style="fill-rule:evenodd;clip-rule:evenodd;stroke-linecap:square;">
    <g transform="matrix(1,0,0,1,-223.994,-62.25)">
        <g id="Layer-1" serif:id="Layer 1">
            <g id="g3954">
                <g id="path3110" transform="matrix(1.5828,0,0,1.5828,-260.84,-70.51)">
                    <path d="M335.07,98.49C335.07,106.304 328.735,112.639 320.921,112.639C313.107,112.639 306.772,106.304 306.772,98.49C306.772,90.676 313.107,84.341 320.921,84.341C328.735,84.341 335.07,90.676 335.07,98.49Z" style="fill:white;fill-rule:nonzero;stroke:rgb(10,10,10);stroke-width:0.95px;"/>
                </g>
                <g id="g3941">
                    <path id="path3112" d="M242.62,66.031C233.816,68.074 227.245,75.948 227.245,85.375C227.245,89.129 228.28,92.63 230.089,95.625L236.37,95.625L236.37,102.094C239.47,104.092 243.157,105.25 247.12,105.25C251.083,105.25 254.77,104.061 257.87,102.063L257.87,95.625L264.12,95.625C265.93,92.633 267,89.132 267,85.378C267,75.951 260.43,68.077 251.62,66.034L251.62,69.628L242.62,69.628L242.62,66.031Z" style="fill:rgb(142,136,230);fill-rule:nonzero;stroke:rgb(51,51,51);stroke-width:0.75px;"/>
                    <g id="g3931">
                        <rect id="rect3909" x="243.41" y="74.338" width="7.427" height="13.32" style="fill:white;stroke:rgb(25,52,27);stroke-width:0.75px;"/>
                        <g id="g3923" transform="matrix(1,0,0,1,-59.835,0)">
                            <g id="path3911" transform="matrix(1.2754,0,0,1.2754,-84.047,-23.646)">
                                <path d="M300.77,78.85C300.77,80.019 299.822,80.968 298.652,80.968C297.483,80.968 296.535,80.019 296.535,78.85C296.535,77.681 297.483,76.732 298.652,76.732C299.822,76.732 300.77,77.681 300.77,78.85Z" style="fill:white;fill-rule:nonzero;stroke:rgb(25,52,27);stroke-width:0.59px;"/>
                            </g>
                            <g id="path3913" transform="matrix(1.2754,0,0,1.2754,-63.74,-23.646)">
                                <path d="M300.77,78.85C300.77,80.019 299.822,80.968 298.652,80.968C297.483,80.968 296.535,80.019 296.535,78.85C296.535,77.681 297.483,76.732 298.652,76.732C299.822,76.732 300.77,77.681 300.77,78.85Z" style="fill:white;fill-rule:nonzero;stroke:rgb(25,52,27);stroke-width:0.59px;"/>
                            </g>
                            <g id="path3915" transform="matrix(1.2754,0,0,1.2754,-86.907,-13.584)">
                                <path d="M300.77,78.85C300.77,80.019 299.822,80.968 298.652,80.968C297.483,80.968 296.535,80.019 296.535,78.85C296.535,77.681 297.483,76.732 298.652,76.732C299.822,76.732 300.77,77.681 300.77,78.85Z" style="fill:white;fill-rule:nonzero;stroke:rgb(25,52,27);stroke-width:0.59px;"/>
                            </g>
                            <g id="path3917" transform="matrix(1.2754,0,0,1.2754,-60.942,-13.584)">
                                <path d="M300.77,78.85C300.77,80.019 299.822,80.968 298.652,80.968C297.483,80.968 296.535,80.019 296.535,78.85C296.535,77.681 297.483,76.732 298.652,76.732C299.822,76.732 300.77,77.681 300.77,78.85Z" style="fill:white;fill-rule:nonzero;stroke:rgb(25,52,27);stroke-width:0.59px;"/>
                            </g>
                            <g id="path3919" transform="matrix(1.2754,0,0,1.2754,-79.004,-3.523)">
                                <path d="M300.77,78.85C300.77,80.019 299.822,80.968 298.652,80.968C297.483,80.968 296.535,80.019 296.535,78.85C296.535,77.681 297.483,76.732 298.652,76.732C299.822,76.732 300.77,77.681 300.77,78.85Z" style="fill:white;fill-rule:nonzero;stroke:rgb(25,52,27);stroke-width:0.59px;"/>
                            </g>
                            <g id="path3921" transform="matrix(1.2754,0,0,1.2754,-68.784,-3.523)">
                                <path d="M300.77,78.85C300.77,80.019 299.822,80.968 298.652,80.968C297.483,80.968 296.535,80.019 296.535,78.85C296.535,77.681 297.483,76.732 298.652,76.732C299.822,76.732 300.77,77.681 300.77,78.85Z" style="fill:white;fill-rule:nonzero;stroke:rgb(25,52,27);stroke-width:0.59px;"/>
                            </g>
                        </g>
                    </g>
                </g>
            </g>
        </g>
    </g>
</svg>
