<?xml version="1.0" encoding="UTF-8" standalone="no"?>
<!DOCTYPE svg PUBLIC "-//W3C//DTD SVG 1.1//EN" "http://www.w3.org/Graphics/SVG/1.1/DTD/svg11.dtd">
<svg width="100%" height="100%" viewBox="0 0 949 232" version="1.1" xmlns="http://www.w3.org/2000/svg" xmlns:xlink="http://www.w3.org/1999/xlink" xml:space="preserve" xmlns:serif="http://www.serif.com/" style="fill-rule:evenodd;clip-rule:evenodd;">
    <g transform="matrix(1,0,0,1,-0.0043838,7.65063)">
        <g id="g3297">
            <path id="path12" d="M102.431,44.164L843.661,44.164C850.588,44.164 855.684,47.086 858.618,51.625C861.432,55.978 862.276,62.001 860.355,68.746L835.255,156.87C835.239,156.927 835.221,156.984 835.202,157.041C833.438,162.251 827.681,166.448 822.471,166.448L123.621,166.448C118.411,166.448 112.654,162.251 110.89,157.041C110.871,156.984 110.853,156.927 110.837,156.87L85.737,68.746C83.816,62.001 84.66,55.978 87.474,51.625C90.408,47.086 95.504,44.164 102.431,44.164ZM102.431,51.48C98.4,51.48 95.325,52.955 93.618,55.597C91.79,58.424 91.525,62.361 92.773,66.742C92.773,66.742 117.845,154.768 117.85,154.781C118.696,157.147 121.246,159.132 123.621,159.132L822.471,159.132C824.848,159.132 827.401,157.144 828.247,154.768L853.319,66.742C854.566,62.361 854.301,58.424 852.474,55.597C850.766,52.955 847.692,51.48 843.661,51.48L102.431,51.48Z" style="fill:rgb(4,7,19);stroke:black;stroke-width:1.94px;"/>
            <g transform="matrix(1.36859,0,0,1.36859,-10.418,5.40654)">
                <g id="circle2794" transform="matrix(1.11427,0,0,1.11427,-4.87789,-8.56808)">
                    <circle cx="42.688" cy="74.969" r="11.24" style="fill:none;stroke:black;stroke-width:0.52px;"/>
                </g>
                <g transform="matrix(1.7,0,0,1.7,-30.412,-54.231)">
                    <circle cx="43" cy="76" r="5" style="stroke:black;stroke-width:0.21px;stroke-linecap:round;stroke-linejoin:round;stroke-miterlimit:1.5;"/>
                </g>
                <g id="path3155" transform="matrix(1.08681,0,0,1.08681,-111.661,-838.212)">
                    <path d="M156.985,848.909L142.02,857.549L127.056,848.909L127.056,831.63L142.02,822.99L156.985,831.63L156.985,848.909Z" style="fill-opacity:0;fill-rule:nonzero;stroke:black;stroke-width:1.01px;stroke-linejoin:round;stroke-miterlimit:2;"/>
                </g>
            </g>
            <g transform="matrix(1.36859,0,0,1.36859,839.324,5.56838)">
                <g id="circle27941" serif:id="circle2794" transform="matrix(1.11427,0,0,1.11427,-4.87789,-8.56808)">
                    <circle cx="42.688" cy="74.969" r="11.24" style="fill:none;stroke:black;stroke-width:0.52px;"/>
                </g>
                <g transform="matrix(1.7,0,0,1.7,-30.412,-54.231)">
                    <circle cx="43" cy="76" r="5" style="stroke:black;stroke-width:0.21px;stroke-linecap:round;stroke-linejoin:round;stroke-miterlimit:1.5;"/>
                </g>
                <g id="path31551" serif:id="path3155" transform="matrix(1.08681,0,0,1.08681,-111.661,-838.212)">
                    <path d="M156.985,848.909L142.02,857.549L127.056,848.909L127.056,831.63L142.02,822.99L156.985,831.63L156.985,848.909Z" style="fill-opacity:0;fill-rule:nonzero;stroke:black;stroke-width:1.01px;stroke-linejoin:round;stroke-miterlimit:2;"/>
                </g>
            </g>
            <rect id="rect44" x="125.779" y="60.06" width="692.242" height="88.076" style="fill:rgb(203,203,204);stroke:black;stroke-width:1.94px;"/>
            <g id="_184021464" transform="matrix(0.155335,0,0,0.215534,-5.82839,-226.446)">
                <g id="g3270" transform="matrix(1,0,0,1,33.2191,952.779)">
                    <path id="_184023360" d="M869.431,378.443L1003.18,378.443L1003.18,497.068C1003.18,503.669 997.781,509.068 991.181,509.068L881.431,509.068C874.831,509.068 869.431,503.669 869.431,497.068L869.431,378.443Z"/>
                    <path id="_187209800" d="M1045.68,378.443L1179.43,378.443L1179.43,497.068C1179.43,503.669 1174.03,509.068 1167.43,509.068L1057.68,509.068C1051.08,509.068 1045.68,503.669 1045.68,497.068L1045.68,378.443Z"/>
                    <path id="_187334720" d="M1221.93,378.443L1355.68,378.443L1355.68,497.068C1355.68,503.669 1350.28,509.068 1343.68,509.068L1233.93,509.068C1227.33,509.068 1221.93,503.669 1221.93,497.068L1221.93,378.443Z"/>
                    <path id="_187323248" d="M1398.18,378.443L1531.93,378.443L1531.93,497.068C1531.93,503.669 1526.53,509.068 1519.93,509.068L1410.18,509.068C1403.58,509.068 1398.18,503.669 1398.18,497.068L1398.18,378.443Z"/>
                    <path id="_187323392" d="M1574.43,378.443L1708.18,378.443L1708.18,497.068C1708.18,503.669 1702.78,509.068 1696.18,509.068L1586.43,509.068C1579.83,509.068 1574.43,503.669 1574.43,497.068L1574.43,378.443Z"/>
                    <path id="_187206040" d="M1750.68,378.443L1884.43,378.443L1884.43,497.068C1884.43,503.669 1879.03,509.068 1872.43,509.068L1762.68,509.068C1756.08,509.068 1750.68,503.669 1750.68,497.068L1750.68,378.443Z"/>
                    <path id="_187204456" d="M1926.93,378.443L2060.68,378.443L2060.68,497.068C2060.68,503.669 2055.28,509.068 2048.68,509.068L1938.93,509.068C1932.33,509.068 1926.93,503.669 1926.93,497.068L1926.93,378.443Z"/>
                    <path id="_187204600" d="M2103.18,378.443L2236.93,378.443L2236.93,497.068C2236.93,503.669 2231.53,509.068 2224.93,509.068L2115.18,509.068C2108.58,509.068 2103.18,503.669 2103.18,497.068L2103.18,378.443Z"/>
                    <path id="_187204784" d="M2279.43,378.443L2413.18,378.443L2413.18,497.068C2413.18,503.669 2407.78,509.068 2401.18,509.068L2291.43,509.068C2284.83,509.068 2279.43,503.669 2279.43,497.068L2279.43,378.443Z"/>
                    <path id="_187207368" d="M2455.68,378.443L2589.43,378.443L2589.43,497.068C2589.43,503.669 2584.03,509.068 2577.43,509.068L2467.68,509.068C2461.08,509.068 2455.68,503.669 2455.68,497.068L2455.68,378.443Z"/>
                    <path id="_187207512" d="M2631.93,378.443L2765.68,378.443L2765.68,497.068C2765.68,503.669 2760.28,509.068 2753.68,509.068L2643.93,509.068C2637.33,509.068 2631.93,503.669 2631.93,497.068L2631.93,378.443Z"/>
                    <path id="_187207656" d="M2808.18,378.443L2941.93,378.443L2941.93,497.068C2941.93,503.669 2936.53,509.068 2929.93,509.068L2820.18,509.068C2813.58,509.068 2808.18,503.669 2808.18,497.068L2808.18,378.443Z"/>
                    <path id="_184023360-0" d="M2981.95,373.836L3115.7,373.836L3115.7,492.462C3115.7,499.062 3110.3,504.461 3103.7,504.461L2993.95,504.461C2987.35,504.461 2981.95,499.062 2981.95,492.462L2981.95,373.836Z"/>
                    <path id="_187209800-2" d="M3158.2,373.836L3291.95,373.836L3291.95,492.462C3291.95,499.062 3286.55,504.461 3279.95,504.461L3170.2,504.461C3163.6,504.461 3158.2,499.062 3158.2,492.462L3158.2,373.836Z"/>
                    <path id="_187334720-8" d="M3334.45,373.836L3468.2,373.836L3468.2,492.462C3468.2,499.062 3462.8,504.461 3456.2,504.461L3346.45,504.461C3339.85,504.461 3334.45,499.062 3334.45,492.462L3334.45,373.836Z"/>
                    <path id="_187323248-2" d="M3510.7,373.836L3644.45,373.836L3644.45,492.462C3644.45,499.062 3639.05,504.461 3632.45,504.461L3522.7,504.461C3516.1,504.461 3510.7,499.062 3510.7,492.462L3510.7,373.836Z"/>
                    <path id="_187323392-7" d="M3686.95,373.836L3820.7,373.836L3820.7,492.462C3820.7,499.062 3815.3,504.461 3808.7,504.461L3698.95,504.461C3692.35,504.461 3686.95,499.062 3686.95,492.462L3686.95,373.836Z"/>
                    <path id="_187206040-6" d="M3863.2,373.836L3996.95,373.836L3996.95,492.462C3996.95,499.062 3991.55,504.461 3984.95,504.461L3875.2,504.461C3868.6,504.461 3863.2,499.062 3863.2,492.462L3863.2,373.836Z"/>
                    <path id="_187204456-0" d="M4039.45,373.836L4173.2,373.836L4173.2,492.462C4173.2,499.062 4167.8,504.461 4161.2,504.461L4051.45,504.461C4044.85,504.461 4039.45,499.062 4039.45,492.462L4039.45,373.836Z"/>
                    <path id="_187204600-7" d="M4215.7,373.836L4349.45,373.836L4349.45,492.462C4349.45,499.062 4344.05,504.461 4337.45,504.461L4227.7,504.461C4221.1,504.461 4215.7,499.062 4215.7,492.462L4215.7,373.836Z"/>
                    <path id="_187204784-5" d="M4391.95,373.836L4525.7,373.836L4525.7,492.462C4525.7,499.062 4520.3,504.461 4513.7,504.461L4403.95,504.461C4397.35,504.461 4391.95,499.062 4391.95,492.462L4391.95,373.836Z"/>
                    <path id="_187207368-4" d="M4568.2,373.836L4701.95,373.836L4701.95,492.462C4701.95,499.062 4696.55,504.461 4689.95,504.461L4580.2,504.461C4573.6,504.461 4568.2,499.062 4568.2,492.462L4568.2,373.836Z"/>
                    <path id="_187207512-2" d="M4744.45,373.836L4878.2,373.836L4878.2,492.462C4878.2,499.062 4872.8,504.461 4866.2,504.461L4756.45,504.461C4749.85,504.461 4744.45,499.062 4744.45,492.462L4744.45,373.836Z"/>
                    <path id="_187207656-9" d="M4920.7,373.836L5054.45,373.836L5054.45,492.462C5054.45,499.062 5049.05,504.461 5042.45,504.461L4932.7,504.461C4926.1,504.461 4920.7,499.062 4920.7,492.462L4920.7,373.836Z"/>
                    <path id="_187207656-9-6" d="M5089.62,373.836L5223.37,373.836L5223.37,492.462C5223.37,499.062 5217.97,504.461 5211.37,504.461L5101.62,504.461C5095.02,504.461 5089.62,499.062 5089.62,492.462L5089.62,373.836Z"/>
                </g>
                <g id="g3243" transform="matrix(1,0,0,1,-1569.77,-341.198)">
                    <path id="_184023360-7" d="M2464.58,2078.5L2598.33,2078.5L2598.33,1959.87C2598.33,1953.27 2592.93,1947.87 2586.33,1947.87L2476.58,1947.87C2469.98,1947.87 2464.58,1953.27 2464.58,1959.87L2464.58,2078.5Z"/>
                    <path id="_187209800-7" d="M2640.83,2078.5L2774.58,2078.5L2774.58,1959.87C2774.58,1953.27 2769.18,1947.87 2762.58,1947.87L2652.83,1947.87C2646.23,1947.87 2640.83,1953.27 2640.83,1959.87L2640.83,2078.5Z"/>
                    <path id="_187334720-7" d="M2817.08,2078.5L2950.83,2078.5L2950.83,1959.87C2950.83,1953.27 2945.43,1947.87 2938.83,1947.87L2829.08,1947.87C2822.48,1947.87 2817.08,1953.27 2817.08,1959.87L2817.08,2078.5Z"/>
                    <path id="_187323248-20" d="M2993.33,2078.5L3127.08,2078.5L3127.08,1959.87C3127.08,1953.27 3121.68,1947.87 3115.08,1947.87L3005.33,1947.87C2998.73,1947.87 2993.33,1953.27 2993.33,1959.87L2993.33,2078.5Z"/>
                    <path id="_187323392-3" d="M3169.58,2078.5L3303.33,2078.5L3303.33,1959.87C3303.33,1953.27 3297.93,1947.87 3291.33,1947.87L3181.58,1947.87C3174.98,1947.87 3169.58,1953.27 3169.58,1959.87L3169.58,2078.5Z"/>
                    <path id="_187206040-2" d="M3345.83,2078.5L3479.58,2078.5L3479.58,1959.87C3479.58,1953.27 3474.18,1947.87 3467.58,1947.87L3357.83,1947.87C3351.23,1947.87 3345.83,1953.27 3345.83,1959.87L3345.83,2078.5Z"/>
                    <path id="_187204456-2" d="M3522.08,2078.5L3655.83,2078.5L3655.83,1959.87C3655.83,1953.27 3650.43,1947.87 3643.83,1947.87L3534.08,1947.87C3527.48,1947.87 3522.08,1953.27 3522.08,1959.87L3522.08,2078.5Z"/>
                    <path id="_187204600-2" d="M3698.33,2078.5L3832.08,2078.5L3832.08,1959.87C3832.08,1953.27 3826.68,1947.87 3820.08,1947.87L3710.33,1947.87C3703.72,1947.87 3698.33,1953.27 3698.33,1959.87L3698.33,2078.5Z"/>
                    <path id="_187204784-6" d="M3874.58,2078.5L4008.33,2078.5L4008.33,1959.87C4008.33,1953.27 4002.93,1947.87 3996.33,1947.87L3886.58,1947.87C3879.98,1947.87 3874.58,1953.27 3874.58,1959.87L3874.58,2078.5Z"/>
                    <path id="_187207368-8" d="M4050.83,2078.5L4184.58,2078.5L4184.58,1959.87C4184.58,1953.27 4179.18,1947.87 4172.58,1947.87L4062.83,1947.87C4056.23,1947.87 4050.83,1953.27 4050.83,1959.87L4050.83,2078.5Z"/>
                    <path id="_187207512-6" d="M4227.08,2078.5L4360.83,2078.5L4360.83,1959.87C4360.83,1953.27 4355.43,1947.87 4348.83,1947.87L4239.07,1947.87C4232.48,1947.87 4227.08,1953.27 4227.08,1959.87L4227.08,2078.5Z"/>
                    <path id="_187207656-0" d="M4403.32,2078.5L4537.07,2078.5L4537.07,1959.87C4537.07,1953.27 4531.68,1947.87 4525.07,1947.87L4415.32,1947.87C4408.72,1947.87 4403.32,1953.27 4403.32,1959.87L4403.32,2078.5Z"/>
                    <path id="_184023360-0-4" d="M4577.1,2083.11L4710.85,2083.11L4710.85,1964.48C4710.85,1957.88 4705.45,1952.48 4698.85,1952.48L4589.1,1952.48C4582.5,1952.48 4577.1,1957.88 4577.1,1964.48L4577.1,2083.11Z"/>
                    <path id="_187209800-2-9" d="M4753.35,2083.11L4887.1,2083.11L4887.1,1964.48C4887.1,1957.88 4881.7,1952.48 4875.1,1952.48L4765.35,1952.48C4758.75,1952.48 4753.35,1957.88 4753.35,1964.48L4753.35,2083.11Z"/>
                    <path id="_187334720-8-8" d="M4929.6,2083.11L5063.35,2083.11L5063.35,1964.48C5063.35,1957.88 5057.95,1952.48 5051.35,1952.48L4941.6,1952.48C4935,1952.48 4929.6,1957.88 4929.6,1964.48L4929.6,2083.11Z"/>
                    <path id="_187323248-2-9" d="M5105.85,2083.11L5239.6,2083.11L5239.6,1964.48C5239.6,1957.88 5234.2,1952.48 5227.6,1952.48L5117.85,1952.48C5111.25,1952.48 5105.85,1957.88 5105.85,1964.48L5105.85,2083.11Z"/>
                    <path id="_187323392-7-0" d="M5282.1,2083.11L5415.85,2083.11L5415.85,1964.48C5415.85,1957.88 5410.45,1952.48 5403.85,1952.48L5294.1,1952.48C5287.5,1952.48 5282.1,1957.88 5282.1,1964.48L5282.1,2083.11Z"/>
                    <path id="_187206040-6-0" d="M5458.35,2083.11L5592.1,2083.11L5592.1,1964.48C5592.1,1957.88 5586.7,1952.48 5580.1,1952.48L5470.35,1952.48C5463.75,1952.48 5458.35,1957.88 5458.35,1964.48L5458.35,2083.11Z"/>
                    <path id="_187204456-0-3" d="M5634.6,2083.11L5768.35,2083.11L5768.35,1964.48C5768.35,1957.88 5762.95,1952.48 5756.35,1952.48L5646.6,1952.48C5639.99,1952.48 5634.6,1957.88 5634.6,1964.48L5634.6,2083.11Z"/>
                    <path id="_187204600-7-0" d="M5810.85,2083.11L5944.6,2083.11L5944.6,1964.48C5944.6,1957.88 5939.19,1952.48 5932.6,1952.48L5822.85,1952.48C5816.24,1952.48 5810.85,1957.88 5810.85,1964.48L5810.85,2083.11Z"/>
                    <path id="_187204784-5-2" d="M5987.1,2083.11L6120.85,2083.11L6120.85,1964.48C6120.85,1957.88 6115.45,1952.48 6108.85,1952.48L5999.1,1952.48C5992.5,1952.48 5987.1,1957.88 5987.1,1964.48L5987.1,2083.11Z"/>
                    <path id="_187207368-4-1" d="M6163.35,2083.11L6297.1,2083.11L6297.1,1964.48C6297.1,1957.88 6291.7,1952.48 6285.1,1952.48L6175.35,1952.48C6168.75,1952.48 6163.35,1957.88 6163.35,1964.48L6163.35,2083.11Z"/>
                    <path id="_187207512-2-8" d="M6339.6,2083.11L6473.35,2083.11L6473.35,1964.48C6473.35,1957.88 6467.95,1952.48 6461.35,1952.48L6351.6,1952.48C6344.99,1952.48 6339.6,1957.88 6339.6,1964.48L6339.6,2083.11Z"/>
                    <path id="_187207656-9-5" d="M6515.84,2083.11L6649.59,2083.11L6649.59,1964.48C6649.59,1957.88 6644.19,1952.48 6637.59,1952.48L6527.84,1952.48C6521.24,1952.48 6515.84,1957.88 6515.84,1964.48L6515.84,2083.11Z"/>
                    <path id="_187207656-9-6-0" d="M6684.77,2083.11L6818.52,2083.11L6818.52,1964.48C6818.52,1957.88 6813.12,1952.48 6806.52,1952.48L6696.77,1952.48C6690.17,1952.48 6684.77,1957.88 6684.77,1964.48L6684.77,2083.11Z"/>
                </g>
            </g>
        </g>
    </g>
</svg>
