<?xml version="1.0" encoding="UTF-8" standalone="no"?>
<!DOCTYPE svg PUBLIC "-//W3C//DTD SVG 1.1//EN" "http://www.w3.org/Graphics/SVG/1.1/DTD/svg11.dtd">
<svg width="100%" height="100%" viewBox="0 0 250 81" version="1.1" xmlns="http://www.w3.org/2000/svg" xmlns:xlink="http://www.w3.org/1999/xlink" xml:space="preserve" xmlns:serif="http://www.serif.com/" style="fill-rule:evenodd;clip-rule:evenodd;">
    <g transform="matrix(1,0,0,1,13,10.1786)">
        <g id="g3287">
            <g id="circle2179">
                <g id="circle2223">
                    <path id="path2229" d="M39.617,11.089L183.459,11.089C190.059,11.089 194.517,16.404 193.367,22.9L190.914,36.771C189.8,43.049 183.678,48.186 177.305,48.186L45.771,48.186C39.396,48.186 33.272,43.047 32.162,36.77L29.709,22.9C28.561,16.403 33.019,11.089 39.617,11.089ZM39.617,13.379C34.521,13.379 31.077,17.484 31.964,22.501L34.417,36.372C35.343,41.609 40.452,45.896 45.771,45.896L177.305,45.896C182.622,45.896 187.73,41.609 188.659,36.371L191.113,22.501C192.001,17.483 188.557,13.379 183.459,13.379L39.617,13.379Z" style="fill:none;fill-rule:nonzero;stroke:black;stroke-width:1.04px;"/>
                </g>
            </g>
            <g transform="matrix(4.86355,0,0,4.86355,-412.924,-54.4407)">
                <path d="M93.754,15.689C94.019,15.689 94.234,15.904 94.234,16.169C94.234,16.434 94.019,16.649 93.754,16.649C93.489,16.649 93.274,16.434 93.274,16.169C93.274,15.904 93.489,15.689 93.754,15.689ZM93.754,15.929C93.886,15.929 93.994,16.037 93.994,16.169C93.994,16.301 93.886,16.409 93.754,16.409C93.622,16.409 93.514,16.301 93.514,16.169C93.514,16.037 93.622,15.929 93.754,15.929Z"/>
            </g>
            <g id="circle2181" transform="matrix(4.86355,0,0,4.86355,-412.924,-54.4407)">
                <path d="M113.837,18.075C114.102,18.075 114.317,18.29 114.317,18.555C114.317,18.82 114.102,19.035 113.837,19.035C113.572,19.035 113.357,18.82 113.357,18.555C113.357,18.29 113.572,18.075 113.837,18.075ZM113.837,18.315C113.969,18.315 114.077,18.423 114.077,18.555C114.077,18.687 113.969,18.795 113.837,18.795C113.705,18.795 113.597,18.687 113.597,18.555C113.597,18.423 113.705,18.315 113.837,18.315Z"/>
                <path d="M96.118,15.689C96.383,15.689 96.598,15.904 96.598,16.169C96.598,16.434 96.383,16.649 96.118,16.649C95.853,16.649 95.638,16.434 95.638,16.169C95.638,15.904 95.853,15.689 96.118,15.689ZM96.118,15.929C96.25,15.929 96.358,16.037 96.358,16.169C96.358,16.301 96.25,16.409 96.118,16.409C95.986,16.409 95.878,16.301 95.878,16.169C95.878,16.037 95.986,15.929 96.118,15.929Z"/>
            </g>
            <g id="circle2183" transform="matrix(4.86355,0,0,4.86355,-412.924,-54.4407)">
                <path d="M98.481,15.689C98.746,15.689 98.961,15.904 98.961,16.169C98.961,16.434 98.746,16.649 98.481,16.649C98.216,16.649 98.001,16.434 98.001,16.169C98.001,15.904 98.216,15.689 98.481,15.689ZM98.481,15.929C98.613,15.929 98.721,16.037 98.721,16.169C98.721,16.301 98.613,16.409 98.481,16.409C98.349,16.409 98.241,16.301 98.241,16.169C98.241,16.037 98.349,15.929 98.481,15.929Z"/>
            </g>
            <g id="circle2185" transform="matrix(4.86355,0,0,4.86355,-412.924,-54.4407)">
                <path d="M100.843,15.689C101.108,15.689 101.323,15.904 101.323,16.169C101.323,16.434 101.108,16.649 100.843,16.649C100.578,16.649 100.363,16.434 100.363,16.169C100.363,15.904 100.578,15.689 100.843,15.689ZM100.843,15.929C100.975,15.929 101.083,16.037 101.083,16.169C101.083,16.301 100.975,16.409 100.843,16.409C100.711,16.409 100.603,16.301 100.603,16.169C100.603,16.037 100.711,15.929 100.843,15.929Z"/>
            </g>
            <g id="circle2187" transform="matrix(4.86355,0,0,4.86355,-412.924,-54.4407)">
                <path d="M94.936,18.076C95.201,18.076 95.416,18.291 95.416,18.556C95.416,18.821 95.201,19.036 94.936,19.036C94.671,19.036 94.456,18.821 94.456,18.556C94.456,18.291 94.671,18.076 94.936,18.076ZM94.936,18.316C95.068,18.316 95.176,18.424 95.176,18.556C95.176,18.688 95.068,18.796 94.936,18.796C94.804,18.796 94.696,18.688 94.696,18.556C94.696,18.424 94.804,18.316 94.936,18.316Z"/>
            </g>
            <g id="circle2189" transform="matrix(4.86355,0,0,4.86355,-412.924,-54.4407)">
                <path d="M97.299,18.076C97.564,18.076 97.779,18.291 97.779,18.556C97.779,18.821 97.564,19.036 97.299,19.036C97.034,19.036 96.819,18.821 96.819,18.556C96.819,18.291 97.034,18.076 97.299,18.076ZM97.299,18.316C97.431,18.316 97.539,18.424 97.539,18.556C97.539,18.688 97.431,18.796 97.299,18.796C97.167,18.796 97.059,18.688 97.059,18.556C97.059,18.424 97.167,18.316 97.299,18.316Z"/>
            </g>
            <g id="circle2191" transform="matrix(4.86355,0,0,4.86355,-412.924,-54.4407)">
                <path d="M99.661,18.076C99.926,18.076 100.141,18.291 100.141,18.556C100.141,18.821 99.926,19.036 99.661,19.036C99.396,19.036 99.181,18.821 99.181,18.556C99.181,18.291 99.396,18.076 99.661,18.076ZM99.661,18.316C99.793,18.316 99.901,18.424 99.901,18.556C99.901,18.688 99.793,18.796 99.661,18.796C99.529,18.796 99.421,18.688 99.421,18.556C99.421,18.424 99.529,18.316 99.661,18.316Z"/>
                <g transform="matrix(1,0,0,1,2.27247,-0.0750147)">
                    <path d="M99.661,18.076C99.926,18.076 100.141,18.291 100.141,18.556C100.141,18.821 99.926,19.036 99.661,19.036C99.396,19.036 99.181,18.821 99.181,18.556C99.181,18.291 99.396,18.076 99.661,18.076ZM99.661,18.316C99.793,18.316 99.901,18.424 99.901,18.556C99.901,18.688 99.793,18.796 99.661,18.796C99.529,18.796 99.421,18.688 99.421,18.556C99.421,18.424 99.529,18.316 99.661,18.316Z"/>
                </g>
            </g>
            <g id="circle21911" serif:id="circle2191" transform="matrix(4.86355,0,0,4.86355,-412.924,-54.4407)">
                <path d="M99.661,18.076C99.926,18.076 100.141,18.291 100.141,18.556C100.141,18.821 99.926,19.036 99.661,19.036C99.396,19.036 99.181,18.821 99.181,18.556C99.181,18.291 99.396,18.076 99.661,18.076ZM99.661,18.316C99.793,18.316 99.901,18.424 99.901,18.556C99.901,18.688 99.793,18.796 99.661,18.796C99.529,18.796 99.421,18.688 99.421,18.556C99.421,18.424 99.529,18.316 99.661,18.316Z"/>
                <g transform="matrix(1,0,0,1,2.27247,-0.0750147)">
                    <path d="M99.661,18.076C99.926,18.076 100.141,18.291 100.141,18.556C100.141,18.821 99.926,19.036 99.661,19.036C99.396,19.036 99.181,18.821 99.181,18.556C99.181,18.291 99.396,18.076 99.661,18.076ZM99.661,18.316C99.793,18.316 99.901,18.424 99.901,18.556C99.901,18.688 99.793,18.796 99.661,18.796C99.529,18.796 99.421,18.688 99.421,18.556C99.421,18.424 99.529,18.316 99.661,18.316Z"/>
                </g>
                <g transform="matrix(1,0,0,1,4.62979,-0.0750147)">
                    <path d="M99.661,18.076C99.926,18.076 100.141,18.291 100.141,18.556C100.141,18.821 99.926,19.036 99.661,19.036C99.396,19.036 99.181,18.821 99.181,18.556C99.181,18.291 99.396,18.076 99.661,18.076ZM99.661,18.316C99.793,18.316 99.901,18.424 99.901,18.556C99.901,18.688 99.793,18.796 99.661,18.796C99.529,18.796 99.421,18.688 99.421,18.556C99.421,18.424 99.529,18.316 99.661,18.316Z"/>
                </g>
            </g>
            <g id="circle2195" transform="matrix(4.86355,0,0,4.86355,-412.924,-54.4407)">
                <path d="M110.294,15.688C110.559,15.688 110.774,15.903 110.774,16.168C110.774,16.433 110.559,16.648 110.294,16.648C110.029,16.648 109.814,16.433 109.814,16.168C109.814,15.903 110.029,15.688 110.294,15.688ZM110.294,15.928C110.426,15.928 110.534,16.036 110.534,16.168C110.534,16.3 110.426,16.408 110.294,16.408C110.162,16.408 110.054,16.3 110.054,16.168C110.054,16.036 110.162,15.928 110.294,15.928Z"/>
            </g>
            <g id="circle2197" transform="matrix(4.86355,0,0,4.86355,-412.924,-54.4407)">
                <path d="M107.931,15.688C108.196,15.688 108.411,15.903 108.411,16.168C108.411,16.433 108.196,16.648 107.931,16.648C107.666,16.648 107.451,16.433 107.451,16.168C107.451,15.903 107.666,15.688 107.931,15.688ZM107.931,15.928C108.063,15.928 108.171,16.036 108.171,16.168C108.171,16.3 108.063,16.408 107.931,16.408C107.799,16.408 107.691,16.3 107.691,16.168C107.691,16.036 107.799,15.928 107.931,15.928Z"/>
            </g>
            <g id="circle2199" transform="matrix(4.86355,0,0,4.86355,-412.924,-54.4407)">
                <path d="M105.568,15.688C105.833,15.688 106.048,15.903 106.048,16.168C106.048,16.433 105.833,16.648 105.568,16.648C105.303,16.648 105.088,16.433 105.088,16.168C105.088,15.903 105.303,15.688 105.568,15.688ZM105.568,15.928C105.7,15.928 105.808,16.036 105.808,16.168C105.808,16.3 105.7,16.408 105.568,16.408C105.436,16.408 105.328,16.3 105.328,16.168C105.328,16.036 105.436,15.928 105.568,15.928Z"/>
            </g>
            <g id="circle2201" transform="matrix(4.86355,0,0,4.86355,-412.924,-54.4407)">
                <path d="M103.206,15.688C103.471,15.688 103.686,15.903 103.686,16.168C103.686,16.433 103.471,16.648 103.206,16.648C102.941,16.648 102.726,16.433 102.726,16.168C102.726,15.903 102.941,15.688 103.206,15.688ZM103.206,15.928C103.338,15.928 103.446,16.036 103.446,16.168C103.446,16.3 103.338,16.408 103.206,16.408C103.074,16.408 102.966,16.3 102.966,16.168C102.966,16.036 103.074,15.928 103.206,15.928Z"/>
            </g>
            <g id="circle2203" transform="matrix(4.86355,0,0,4.86355,-412.924,-54.4407)">
                <path d="M109.112,18.075C109.377,18.075 109.592,18.29 109.592,18.555C109.592,18.82 109.377,19.035 109.112,19.035C108.847,19.035 108.632,18.82 108.632,18.555C108.632,18.29 108.847,18.075 109.112,18.075ZM109.112,18.315C109.244,18.315 109.352,18.423 109.352,18.555C109.352,18.687 109.244,18.795 109.112,18.795C108.98,18.795 108.872,18.687 108.872,18.555C108.872,18.423 108.98,18.315 109.112,18.315Z"/>
            </g>
            <g id="circle2205" transform="matrix(4.86355,0,0,4.86355,-412.924,-54.4407)">
                <path d="M106.75,18.075C107.015,18.075 107.23,18.29 107.23,18.555C107.23,18.82 107.015,19.035 106.75,19.035C106.485,19.035 106.27,18.82 106.27,18.555C106.27,18.29 106.485,18.075 106.75,18.075ZM106.75,18.315C106.882,18.315 106.99,18.423 106.99,18.555C106.99,18.687 106.882,18.795 106.75,18.795C106.618,18.795 106.51,18.687 106.51,18.555C106.51,18.423 106.618,18.315 106.75,18.315Z"/>
            </g>
            <g id="circle2211" transform="matrix(4.86355,0,0,4.86355,-412.924,-54.4407)">
                <path d="M120.925,18.075C121.19,18.075 121.405,18.29 121.405,18.555C121.405,18.82 121.19,19.035 120.925,19.035C120.66,19.035 120.445,18.82 120.445,18.555C120.445,18.29 120.66,18.075 120.925,18.075ZM120.925,18.315C121.057,18.315 121.165,18.423 121.165,18.555C121.165,18.687 121.057,18.795 120.925,18.795C120.793,18.795 120.685,18.687 120.685,18.555C120.685,18.423 120.793,18.315 120.925,18.315Z"/>
                <g transform="matrix(1,0,0,1,-2.45793,-0.0744259)">
                    <path d="M120.925,18.075C121.19,18.075 121.405,18.29 121.405,18.555C121.405,18.82 121.19,19.035 120.925,19.035C120.66,19.035 120.445,18.82 120.445,18.555C120.445,18.29 120.66,18.075 120.925,18.075ZM120.925,18.315C121.057,18.315 121.165,18.423 121.165,18.555C121.165,18.687 121.057,18.795 120.925,18.795C120.793,18.795 120.685,18.687 120.685,18.555C120.685,18.423 120.793,18.315 120.925,18.315Z"/>
                </g>
            </g>
            <g id="circle2213" transform="matrix(4.86355,0,0,4.86355,-412.924,-54.4407)">
                <path d="M112.656,15.688C112.921,15.688 113.136,15.903 113.136,16.168C113.136,16.433 112.921,16.648 112.656,16.648C112.391,16.648 112.176,16.433 112.176,16.168C112.176,15.903 112.391,15.688 112.656,15.688ZM112.656,15.928C112.788,15.928 112.896,16.036 112.896,16.168C112.896,16.3 112.788,16.408 112.656,16.408C112.524,16.408 112.416,16.3 112.416,16.168C112.416,16.036 112.524,15.928 112.656,15.928Z"/>
            </g>
            <g id="circle2219" transform="matrix(4.86355,0,0,4.86355,-412.924,-54.4407)">
                <path d="M119.744,15.688C120.009,15.688 120.224,15.903 120.224,16.168C120.224,16.433 120.009,16.648 119.744,16.648C119.479,16.648 119.264,16.433 119.264,16.168C119.264,15.903 119.479,15.688 119.744,15.688ZM119.744,15.928C119.876,15.928 119.984,16.036 119.984,16.168C119.984,16.3 119.876,16.408 119.744,16.408C119.612,16.408 119.504,16.3 119.504,16.168C119.504,16.036 119.612,15.928 119.744,15.928Z"/>
                <g transform="matrix(1,0,0,1,2.26677,-0.0739526)">
                    <path d="M119.744,15.688C120.009,15.688 120.224,15.903 120.224,16.168C120.224,16.433 120.009,16.648 119.744,16.648C119.479,16.648 119.264,16.433 119.264,16.168C119.264,15.903 119.479,15.688 119.744,15.688ZM119.744,15.928C119.876,15.928 119.984,16.036 119.984,16.168C119.984,16.3 119.876,16.408 119.744,16.408C119.612,16.408 119.504,16.3 119.504,16.168C119.504,16.036 119.612,15.928 119.744,15.928Z"/>
                </g>
                <g transform="matrix(1,0,0,1,-2.45776,-0.0742619)">
                    <path d="M119.744,15.688C120.009,15.688 120.224,15.903 120.224,16.168C120.224,16.433 120.009,16.648 119.744,16.648C119.479,16.648 119.264,16.433 119.264,16.168C119.264,15.903 119.479,15.688 119.744,15.688ZM119.744,15.928C119.876,15.928 119.984,16.036 119.984,16.168C119.984,16.3 119.876,16.408 119.744,16.408C119.612,16.408 119.504,16.3 119.504,16.168C119.504,16.036 119.612,15.928 119.744,15.928Z"/>
                </g>
                <g transform="matrix(1,0,0,1,-4.82044,-0.0739526)">
                    <path d="M119.744,15.688C120.009,15.688 120.224,15.903 120.224,16.168C120.224,16.433 120.009,16.648 119.744,16.648C119.479,16.648 119.264,16.433 119.264,16.168C119.264,15.903 119.479,15.688 119.744,15.688ZM119.744,15.928C119.876,15.928 119.984,16.036 119.984,16.168C119.984,16.3 119.876,16.408 119.744,16.408C119.612,16.408 119.504,16.3 119.504,16.168C119.504,16.036 119.612,15.928 119.744,15.928Z"/>
                </g>
            </g>
            <g id="circle2221" transform="matrix(4.86355,0,0,4.86355,-412.924,-54.4407)">
                <path d="M111.475,18.075C111.74,18.075 111.955,18.29 111.955,18.555C111.955,18.82 111.74,19.035 111.475,19.035C111.21,19.035 110.995,18.82 110.995,18.555C110.995,18.29 111.21,18.075 111.475,18.075ZM111.475,18.315C111.607,18.315 111.715,18.423 111.715,18.555C111.715,18.687 111.607,18.795 111.475,18.795C111.343,18.795 111.235,18.687 111.235,18.555C111.235,18.423 111.343,18.315 111.475,18.315Z"/>
            </g>
            <g id="circle2225" transform="matrix(4.86355,0,0,4.86355,-412.924,-54.4407)">
                <path d="M116.2,18.075C116.465,18.075 116.68,18.29 116.68,18.555C116.68,18.82 116.465,19.035 116.2,19.035C115.935,19.035 115.72,18.82 115.72,18.555C115.72,18.29 115.935,18.075 116.2,18.075ZM116.2,18.315C116.332,18.315 116.44,18.423 116.44,18.555C116.44,18.687 116.332,18.795 116.2,18.795C116.068,18.795 115.96,18.687 115.96,18.555C115.96,18.423 116.068,18.315 116.2,18.315Z"/>
            </g>
            <g transform="matrix(0.63831,0,0,0.63831,183.545,-17.8733)">
                <g id="circle2794" transform="matrix(1.11427,0,0,1.11427,-4.87789,-8.56808)">
                    <circle cx="42.688" cy="74.969" r="9.081" style="fill:none;stroke:black;stroke-width:0.52px;"/>
                </g>
                <g transform="matrix(1.7,0,0,1.7,-30.412,-54.231)">
                    <circle cx="43" cy="76" r="5" style="stroke:black;stroke-width:0.46px;stroke-linecap:round;stroke-linejoin:round;stroke-miterlimit:1.5;"/>
                </g>
                <g id="path3155" transform="matrix(1.08681,0,0,1.08681,-111.661,-838.212)">
                    <path d="M156.985,848.909L142.02,857.549L127.056,848.909L127.056,831.63L142.02,822.99L156.985,831.63L156.985,848.909Z" style="fill-opacity:0;fill-rule:nonzero;stroke:black;stroke-width:2.16px;stroke-linejoin:round;stroke-miterlimit:2;"/>
                </g>
            </g>
            <g transform="matrix(0.63831,0,0,0.63831,-14.867,-17.8733)">
                <g id="circle27941" serif:id="circle2794" transform="matrix(1.11427,0,0,1.11427,-4.87789,-8.56808)">
                    <circle cx="42.688" cy="74.969" r="9.081" style="fill:none;stroke:black;stroke-width:0.52px;"/>
                </g>
                <g transform="matrix(1.7,0,0,1.7,-30.412,-54.231)">
                    <circle cx="43" cy="76" r="5" style="stroke:black;stroke-width:0.46px;stroke-linecap:round;stroke-linejoin:round;stroke-miterlimit:1.5;"/>
                </g>
                <g id="path31551" serif:id="path3155" transform="matrix(1.08681,0,0,1.08681,-111.661,-838.212)">
                    <path d="M156.985,848.909L142.02,857.549L127.056,848.909L127.056,831.63L142.02,822.99L156.985,831.63L156.985,848.909Z" style="fill-opacity:0;fill-rule:nonzero;stroke:black;stroke-width:2.16px;stroke-linejoin:round;stroke-miterlimit:2;"/>
                </g>
            </g>
        </g>
        <g transform="matrix(1,0,0,1,-13,-10.1786)">
            <path d="M52.617,23.558L196.459,23.558C201.557,23.558 205.001,27.662 204.113,32.68L201.659,46.55C200.73,51.788 195.622,56.075 190.305,56.075L58.771,56.075C53.452,56.075 48.343,51.788 47.417,46.551L44.964,32.68C44.077,27.663 47.521,23.558 52.617,23.558ZM95.835,43.287C94.546,43.287 93.5,44.333 93.5,45.621C93.5,46.91 94.546,47.956 95.835,47.956C97.123,47.956 98.169,46.91 98.169,45.621C98.169,44.333 97.123,43.287 95.835,43.287ZM84.782,43.651C83.494,43.651 82.448,44.697 82.448,45.986C82.448,47.274 83.494,48.32 84.782,48.32C86.071,48.32 87.117,47.274 87.117,45.986C87.117,44.697 86.071,43.651 84.782,43.651ZM102.024,32.037C100.735,32.037 99.689,33.083 99.689,34.372C99.689,35.66 100.735,36.706 102.024,36.706C103.312,36.706 104.358,35.66 104.358,34.372C104.358,33.083 103.312,32.037 102.024,32.037ZM130.748,43.647C129.459,43.647 128.413,44.693 128.413,45.981C128.413,47.27 129.459,48.316 130.748,48.316C132.036,48.316 133.082,47.27 133.082,45.981C133.082,44.693 132.036,43.647 130.748,43.647ZM119.26,43.647C117.972,43.647 116.925,44.693 116.925,45.981C116.925,47.27 117.972,48.316 119.26,48.316C120.548,48.316 121.594,47.27 121.594,45.981C121.594,44.693 120.548,43.647 119.26,43.647ZM188.201,43.647C186.912,43.647 185.866,44.693 185.866,45.981C185.866,47.27 186.912,48.316 188.201,48.316C189.489,48.316 190.535,47.27 190.535,45.981C190.535,44.693 189.489,43.647 188.201,43.647ZM176.246,43.285C174.958,43.285 173.912,44.331 173.912,45.619C173.912,46.908 174.958,47.954 176.246,47.954C177.535,47.954 178.581,46.908 178.581,45.619C178.581,44.331 177.535,43.285 176.246,43.285ZM147.984,32.037C146.696,32.037 145.65,33.083 145.65,34.372C145.65,35.66 146.696,36.706 147.984,36.706C149.273,36.706 150.319,35.66 150.319,34.372C150.319,33.083 149.273,32.037 147.984,32.037ZM182.457,32.037C181.168,32.037 180.122,33.083 180.122,34.372C180.122,35.66 181.168,36.706 182.457,36.706C183.745,36.706 184.791,35.66 184.791,34.372C184.791,33.083 183.745,32.037 182.457,32.037ZM193.481,31.678C192.193,31.678 191.147,32.724 191.147,34.012C191.147,35.301 192.193,36.347 193.481,36.347C194.77,36.347 195.816,35.301 195.816,34.012C195.816,32.724 194.77,31.678 193.481,31.678ZM170.504,31.676C169.215,31.676 168.169,32.722 168.169,34.011C168.169,35.299 169.215,36.345 170.504,36.345C171.792,36.345 172.838,35.299 172.838,34.011C172.838,32.722 171.792,31.676 170.504,31.676ZM159.013,31.678C157.724,31.678 156.678,32.724 156.678,34.012C156.678,35.301 157.724,36.347 159.013,36.347C160.301,36.347 161.347,35.301 161.347,34.012C161.347,32.724 160.301,31.678 159.013,31.678ZM142.24,43.647C140.952,43.647 139.906,44.693 139.906,45.981C139.906,47.27 140.952,48.316 142.24,48.316C143.529,48.316 144.575,47.27 144.575,45.981C144.575,44.693 143.529,43.647 142.24,43.647ZM165.221,43.647C163.932,43.647 162.886,44.693 162.886,45.981C162.886,47.27 163.932,48.316 165.221,48.316C166.509,48.316 167.555,47.27 167.555,45.981C167.555,44.693 166.509,43.647 165.221,43.647ZM153.728,43.647C152.439,43.647 151.393,44.693 151.393,45.981C151.393,47.27 152.439,48.316 153.728,48.316C155.016,48.316 156.062,47.27 156.062,45.981C156.062,44.693 155.016,43.647 153.728,43.647ZM67.551,32.042C66.262,32.042 65.216,33.088 65.216,34.377C65.216,35.665 66.262,36.711 67.551,36.711C68.839,36.711 69.885,35.665 69.885,34.377C69.885,33.088 68.839,32.042 67.551,32.042ZM79.043,32.042C77.755,32.042 76.709,33.088 76.709,34.377C76.709,35.665 77.755,36.711 79.043,36.711C80.332,36.711 81.378,35.665 81.378,34.377C81.378,33.088 80.332,32.042 79.043,32.042ZM90.531,32.042C89.243,32.042 88.196,33.088 88.196,34.377C88.196,35.665 89.243,36.711 90.531,36.711C91.819,36.711 92.865,35.665 92.865,34.377C92.865,33.088 91.819,32.042 90.531,32.042ZM61.802,43.651C60.514,43.651 59.467,44.697 59.467,45.986C59.467,47.274 60.514,48.32 61.802,48.32C63.09,48.32 64.136,47.274 64.136,45.986C64.136,44.697 63.09,43.651 61.802,43.651ZM73.295,43.651C72.006,43.651 70.96,44.697 70.96,45.986C70.96,47.274 72.006,48.32 73.295,48.32C74.583,48.32 75.629,47.274 75.629,45.986C75.629,44.697 74.583,43.651 73.295,43.651ZM107.299,43.287C106.011,43.287 104.965,44.333 104.965,45.621C104.965,46.91 106.011,47.956 107.299,47.956C108.588,47.956 109.634,46.91 109.634,45.621C109.634,44.333 108.588,43.287 107.299,43.287ZM136.496,32.037C135.208,32.037 134.162,33.083 134.162,34.372C134.162,35.66 135.208,36.706 136.496,36.706C137.785,36.706 138.831,35.66 138.831,34.372C138.831,33.083 137.785,32.037 136.496,32.037ZM125.004,32.037C123.715,32.037 122.669,33.083 122.669,34.372C122.669,35.66 123.715,36.706 125.004,36.706C126.292,36.706 127.338,35.66 127.338,34.372C127.338,33.083 126.292,32.037 125.004,32.037ZM113.511,32.037C112.223,32.037 111.177,33.083 111.177,34.372C111.177,35.66 112.223,36.706 113.511,36.706C114.8,36.706 115.846,35.66 115.846,34.372C115.846,33.083 114.8,32.037 113.511,32.037ZM56.053,32.042C54.765,32.042 53.719,33.088 53.719,34.377C53.719,35.665 54.765,36.711 56.053,36.711C57.342,36.711 58.388,35.665 58.388,34.377C58.388,33.088 57.342,32.042 56.053,32.042Z" style="fill:rgb(76,158,161);"/>
        </g>
        <g transform="matrix(1,0,0,1,-13,-10.1786)">
            <path d="M52.617,23.558L196.459,23.558C201.557,23.558 205.001,27.662 204.113,32.68L201.659,46.55C200.73,51.788 195.622,56.075 190.305,56.075L58.771,56.075C53.452,56.075 48.343,51.788 47.417,46.551L44.964,32.68C44.077,27.663 47.521,23.558 52.617,23.558ZM182.457,32.037C181.168,32.037 180.122,33.083 180.122,34.372C180.122,35.66 181.168,36.706 182.457,36.706C183.745,36.706 184.791,35.66 184.791,34.372C184.791,33.083 183.745,32.037 182.457,32.037ZM119.26,43.647C117.972,43.647 116.925,44.693 116.925,45.981C116.925,47.27 117.972,48.316 119.26,48.316C120.548,48.316 121.594,47.27 121.594,45.981C121.594,44.693 120.548,43.647 119.26,43.647ZM170.504,31.676C169.215,31.676 168.169,32.722 168.169,34.011C168.169,35.299 169.215,36.345 170.504,36.345C171.792,36.345 172.838,35.299 172.838,34.011C172.838,32.722 171.792,31.676 170.504,31.676ZM165.221,43.647C163.932,43.647 162.886,44.693 162.886,45.981C162.886,47.27 163.932,48.316 165.221,48.316C166.509,48.316 167.555,47.27 167.555,45.981C167.555,44.693 166.509,43.647 165.221,43.647ZM153.728,43.647C152.439,43.647 151.393,44.693 151.393,45.981C151.393,47.27 152.439,48.316 153.728,48.316C155.016,48.316 156.062,47.27 156.062,45.981C156.062,44.693 155.016,43.647 153.728,43.647ZM176.246,43.285C174.958,43.285 173.912,44.331 173.912,45.619C173.912,46.908 174.958,47.954 176.246,47.954C177.535,47.954 178.581,46.908 178.581,45.619C178.581,44.331 177.535,43.285 176.246,43.285ZM73.295,43.651C72.006,43.651 70.96,44.697 70.96,45.986C70.96,47.274 72.006,48.32 73.295,48.32C74.583,48.32 75.629,47.274 75.629,45.986C75.629,44.697 74.583,43.651 73.295,43.651ZM107.299,43.287C106.011,43.287 104.965,44.333 104.965,45.621C104.965,46.91 106.011,47.956 107.299,47.956C108.588,47.956 109.634,46.91 109.634,45.621C109.634,44.333 108.588,43.287 107.299,43.287ZM159.013,31.678C157.724,31.678 156.678,32.724 156.678,34.012C156.678,35.301 157.724,36.347 159.013,36.347C160.301,36.347 161.347,35.301 161.347,34.012C161.347,32.724 160.301,31.678 159.013,31.678ZM142.24,43.647C140.952,43.647 139.906,44.693 139.906,45.981C139.906,47.27 140.952,48.316 142.24,48.316C143.529,48.316 144.575,47.27 144.575,45.981C144.575,44.693 143.529,43.647 142.24,43.647ZM193.481,31.678C192.193,31.678 191.147,32.724 191.147,34.012C191.147,35.301 192.193,36.347 193.481,36.347C194.77,36.347 195.816,35.301 195.816,34.012C195.816,32.724 194.77,31.678 193.481,31.678ZM130.748,43.647C129.459,43.647 128.413,44.693 128.413,45.981C128.413,47.27 129.459,48.316 130.748,48.316C132.036,48.316 133.082,47.27 133.082,45.981C133.082,44.693 132.036,43.647 130.748,43.647ZM188.201,43.647C186.912,43.647 185.866,44.693 185.866,45.981C185.866,47.27 186.912,48.316 188.201,48.316C189.489,48.316 190.535,47.27 190.535,45.981C190.535,44.693 189.489,43.647 188.201,43.647ZM102.024,32.037C100.735,32.037 99.689,33.083 99.689,34.372C99.689,35.66 100.735,36.706 102.024,36.706C103.312,36.706 104.358,35.66 104.358,34.372C104.358,33.083 103.312,32.037 102.024,32.037ZM136.496,32.037C135.208,32.037 134.162,33.083 134.162,34.372C134.162,35.66 135.208,36.706 136.496,36.706C137.785,36.706 138.831,35.66 138.831,34.372C138.831,33.083 137.785,32.037 136.496,32.037ZM125.004,32.037C123.715,32.037 122.669,33.083 122.669,34.372C122.669,35.66 123.715,36.706 125.004,36.706C126.292,36.706 127.338,35.66 127.338,34.372C127.338,33.083 126.292,32.037 125.004,32.037ZM67.551,32.042C66.262,32.042 65.216,33.088 65.216,34.377C65.216,35.665 66.262,36.711 67.551,36.711C68.839,36.711 69.885,35.665 69.885,34.377C69.885,33.088 68.839,32.042 67.551,32.042ZM79.043,32.042C77.755,32.042 76.709,33.088 76.709,34.377C76.709,35.665 77.755,36.711 79.043,36.711C80.332,36.711 81.378,35.665 81.378,34.377C81.378,33.088 80.332,32.042 79.043,32.042ZM90.531,32.042C89.243,32.042 88.196,33.088 88.196,34.377C88.196,35.665 89.243,36.711 90.531,36.711C91.819,36.711 92.865,35.665 92.865,34.377C92.865,33.088 91.819,32.042 90.531,32.042ZM61.802,43.651C60.514,43.651 59.467,44.697 59.467,45.986C59.467,47.274 60.514,48.32 61.802,48.32C63.09,48.32 64.136,47.274 64.136,45.986C64.136,44.697 63.09,43.651 61.802,43.651ZM84.782,43.651C83.494,43.651 82.448,44.697 82.448,45.986C82.448,47.274 83.494,48.32 84.782,48.32C86.071,48.32 87.117,47.274 87.117,45.986C87.117,44.697 86.071,43.651 84.782,43.651ZM95.835,43.287C94.546,43.287 93.5,44.333 93.5,45.621C93.5,46.91 94.546,47.956 95.835,47.956C97.123,47.956 98.169,46.91 98.169,45.621C98.169,44.333 97.123,43.287 95.835,43.287ZM113.511,32.037C112.223,32.037 111.177,33.083 111.177,34.372C111.177,35.66 112.223,36.706 113.511,36.706C114.8,36.706 115.846,35.66 115.846,34.372C115.846,33.083 114.8,32.037 113.511,32.037ZM56.053,32.042C54.765,32.042 53.719,33.088 53.719,34.377C53.719,35.665 54.765,36.711 56.053,36.711C57.342,36.711 58.388,35.665 58.388,34.377C58.388,33.088 57.342,32.042 56.053,32.042ZM147.984,32.037C146.696,32.037 145.65,33.083 145.65,34.372C145.65,35.66 146.696,36.706 147.984,36.706C149.273,36.706 150.319,35.66 150.319,34.372C150.319,33.083 149.273,32.037 147.984,32.037Z" style="fill:none;"/>
        </g>
    </g>
</svg>
