<?xml version="1.0" encoding="UTF-8" standalone="no"?>
<!DOCTYPE svg PUBLIC "-//W3C//DTD SVG 1.1//EN" "http://www.w3.org/Graphics/SVG/1.1/DTD/svg11.dtd">
<svg width="100%" height="100%" viewBox="0 0 250 81" version="1.1" xmlns="http://www.w3.org/2000/svg" xmlns:xlink="http://www.w3.org/1999/xlink" xml:space="preserve" xmlns:serif="http://www.serif.com/" style="fill-rule:evenodd;clip-rule:evenodd;">
    <g transform="matrix(1,0,0,1,13,10.1786)">
        <g id="g3287">
            <g transform="matrix(1,0,0,1,-634.667,-170)">
                <path d="M674.283,183.379L818.126,183.379C823.224,183.379 826.668,187.483 825.779,192.501L823.326,206.371C822.397,211.609 817.289,215.896 811.972,215.896L680.437,215.896C675.119,215.896 670.01,211.609 669.083,206.372L666.63,192.501C665.744,187.484 669.187,183.379 674.283,183.379Z" style="fill:rgb(99,99,99);"/>
            </g>
            <g id="circle2179" transform="matrix(4.86355,0,0,4.86355,-412.924,-54.4407)">
                <circle cx="93.754" cy="16.169" r="0.48"/>
            </g>
            <g id="circle2181" transform="matrix(4.86355,0,0,4.86355,-412.924,-54.4407)">
                <circle cx="96.118" cy="16.169" r="0.48"/>
            </g>
            <g id="circle2183" transform="matrix(4.86355,0,0,4.86355,-412.924,-54.4407)">
                <circle cx="98.481" cy="16.169" r="0.48"/>
            </g>
            <g id="circle2185" transform="matrix(4.86355,0,0,4.86355,-412.924,-54.4407)">
                <circle cx="100.843" cy="16.169" r="0.48"/>
            </g>
            <g id="circle2187" transform="matrix(4.86355,0,0,4.86355,-412.924,-54.4407)">
                <circle cx="94.936" cy="18.556" r="0.48"/>
            </g>
            <g id="circle2189" transform="matrix(4.86355,0,0,4.86355,-412.924,-54.4407)">
                <circle cx="97.299" cy="18.556" r="0.48"/>
            </g>
            <g id="circle2191" transform="matrix(4.86355,0,0,4.86355,-412.924,-54.4407)">
                <circle cx="99.661" cy="18.556" r="0.48"/>
            </g>
            <path id="path2193" d="M82.814,33.111C84.102,33.111 85.146,34.156 85.146,35.443C85.146,36.732 84.102,37.778 82.814,37.778C81.523,37.778 80.481,36.732 80.481,35.443C80.481,34.156 81.523,33.111 82.814,33.111Z" style="fill-rule:nonzero;"/>
            <g id="circle2195" transform="matrix(4.86355,0,0,4.86355,-412.924,-54.4407)">
                <circle cx="110.294" cy="16.168" r="0.48"/>
            </g>
            <g id="circle2197" transform="matrix(4.86355,0,0,4.86355,-412.924,-54.4407)">
                <circle cx="107.931" cy="16.168" r="0.48"/>
            </g>
            <g id="circle2199" transform="matrix(4.86355,0,0,4.86355,-412.924,-54.4407)">
                <circle cx="105.568" cy="16.168" r="0.48"/>
            </g>
            <g id="circle2201" transform="matrix(4.86355,0,0,4.86355,-412.924,-54.4407)">
                <circle cx="103.206" cy="16.168" r="0.48"/>
            </g>
            <g id="circle2203" transform="matrix(4.86355,0,0,4.86355,-412.924,-54.4407)">
                <circle cx="109.112" cy="18.555" r="0.48"/>
            </g>
            <g id="circle2205" transform="matrix(4.86355,0,0,4.86355,-412.924,-54.4407)">
                <circle cx="106.75" cy="18.555" r="0.48"/>
            </g>
            <path id="path2207" d="M94.3,33.109C93.013,33.109 91.969,34.153 91.969,35.443C91.969,36.732 93.013,37.777 94.3,37.777C95.591,37.777 96.634,36.733 96.634,35.443C96.634,34.153 95.591,33.109 94.3,33.109Z" style="fill-rule:nonzero;"/>
            <path id="path2209" d="M180.487,21.499C179.195,21.499 178.148,22.545 178.148,23.834C178.148,25.123 179.195,26.168 180.487,26.168C181.772,26.168 182.816,25.124 182.816,23.834C182.816,22.545 181.772,21.499 180.487,21.499Z" style="fill-rule:nonzero;"/>
            <g id="circle2211" transform="matrix(4.86355,0,0,4.86355,-412.924,-54.4407)">
                <circle cx="120.925" cy="18.555" r="0.48"/>
            </g>
            <g id="circle2213" transform="matrix(4.86355,0,0,4.86355,-412.924,-54.4407)">
                <circle cx="112.656" cy="16.168" r="0.48"/>
            </g>
            <path id="path2215" d="M146.009,21.499C147.301,21.499 148.346,22.544 148.346,23.833C148.346,25.121 147.301,26.166 146.009,26.166C144.724,26.166 143.678,25.121 143.678,23.833C143.678,22.544 144.724,21.499 146.009,21.499Z" style="fill-rule:nonzero;"/>
            <path id="path2217" d="M157.5,21.498C158.789,21.498 159.838,22.544 159.838,23.833C159.838,25.122 158.789,26.166 157.5,26.166C156.217,26.166 155.169,25.122 155.169,23.833C155.169,22.544 156.217,21.498 157.5,21.498Z" style="fill-rule:nonzero;"/>
            <g id="circle2219" transform="matrix(4.86355,0,0,4.86355,-412.924,-54.4407)">
                <circle cx="119.744" cy="16.168" r="0.48"/>
            </g>
            <g id="circle2221" transform="matrix(4.86355,0,0,4.86355,-412.924,-54.4407)">
                <circle cx="111.475" cy="18.555" r="0.48"/>
            </g>
            <g id="circle2223" transform="matrix(4.86355,0,0,4.86355,-412.924,-54.4407)">
                <circle cx="113.837" cy="18.555" r="0.48"/>
            </g>
            <g id="circle2225" transform="matrix(4.86355,0,0,4.86355,-412.924,-54.4407)">
                <circle cx="116.2" cy="18.555" r="0.48"/>
            </g>
            <path id="path2227" d="M163.251,33.106C164.539,33.106 165.581,34.152 165.581,35.44C165.581,36.728 164.539,37.775 163.251,37.775C161.96,37.775 160.917,36.728 160.917,35.44C160.917,34.152 161.96,33.106 163.251,33.106Z" style="fill-rule:nonzero;"/>
            <path id="path2229" d="M39.617,11.089L183.459,11.089C190.059,11.089 194.517,16.404 193.367,22.9L190.914,36.771C189.8,43.049 183.678,48.186 177.305,48.186L45.771,48.186C39.396,48.186 33.272,43.047 32.162,36.77L29.709,22.9C28.561,16.403 33.019,11.089 39.617,11.089ZM39.617,13.379C34.521,13.379 31.077,17.484 31.964,22.501L34.417,36.372C35.343,41.609 40.452,45.896 45.771,45.896L177.305,45.896C182.622,45.896 187.73,41.609 188.659,36.371L191.113,22.501C192.001,17.483 188.557,13.379 183.459,13.379L39.617,13.379Z" style="fill:none;fill-rule:nonzero;stroke:black;stroke-width:1.04px;"/>
            <g id="g2231">
            </g>
            <g transform="matrix(0.63831,0,0,0.63831,183.545,-17.8733)">
                <g id="circle2794" transform="matrix(1.11427,0,0,1.11427,-4.87789,-8.56808)">
                    <circle cx="42.688" cy="74.969" r="9.081" style="fill:none;stroke:black;stroke-width:0.52px;"/>
                </g>
                <g transform="matrix(1.7,0,0,1.7,-30.412,-54.231)">
                    <circle cx="43" cy="76" r="5" style="stroke:black;stroke-width:0.46px;stroke-linecap:round;stroke-linejoin:round;stroke-miterlimit:1.5;"/>
                </g>
                <g id="path3155" transform="matrix(1.08681,0,0,1.08681,-111.661,-838.212)">
                    <path d="M156.985,848.909L142.02,857.549L127.056,848.909L127.056,831.63L142.02,822.99L156.985,831.63L156.985,848.909Z" style="fill-opacity:0;fill-rule:nonzero;stroke:black;stroke-width:2.16px;stroke-linejoin:round;stroke-miterlimit:2;"/>
                </g>
            </g>
            <g transform="matrix(0.63831,0,0,0.63831,-14.867,-17.8733)">
                <g id="circle27941" serif:id="circle2794" transform="matrix(1.11427,0,0,1.11427,-4.87789,-8.56808)">
                    <circle cx="42.688" cy="74.969" r="9.081" style="fill:none;stroke:black;stroke-width:0.52px;"/>
                </g>
                <g transform="matrix(1.7,0,0,1.7,-30.412,-54.231)">
                    <circle cx="43" cy="76" r="5" style="stroke:black;stroke-width:0.46px;stroke-linecap:round;stroke-linejoin:round;stroke-miterlimit:1.5;"/>
                </g>
                <g id="path31551" serif:id="path3155" transform="matrix(1.08681,0,0,1.08681,-111.661,-838.212)">
                    <path d="M156.985,848.909L142.02,857.549L127.056,848.909L127.056,831.63L142.02,822.99L156.985,831.63L156.985,848.909Z" style="fill-opacity:0;fill-rule:nonzero;stroke:black;stroke-width:2.16px;stroke-linejoin:round;stroke-miterlimit:2;"/>
                </g>
            </g>
        </g>
    </g>
</svg>
