<?xml version="1.0" encoding="UTF-8" standalone="no"?>
<!DOCTYPE svg PUBLIC "-//W3C//DTD SVG 1.1//EN" "http://www.w3.org/Graphics/SVG/1.1/DTD/svg11.dtd">
<svg width="100%" height="100%" viewBox="0 0 208 98" version="1.1" xmlns="http://www.w3.org/2000/svg" xmlns:xlink="http://www.w3.org/1999/xlink" xml:space="preserve" xmlns:serif="http://www.serif.com/" style="fill-rule:evenodd;clip-rule:evenodd;stroke-miterlimit:10;">
    <g transform="matrix(1,0,0,1,-8,-20)">
        <g transform="matrix(3.2,0,0,3.2,71.1681,21.3222)">
            <path id="path4154" d="M-0.227,5.691L25.746,5.691C29.011,5.691 31.215,8.32 30.648,11.535L29.425,18.448C28.873,21.56 25.838,24.107 22.679,24.107L2.841,24.107C-0.319,24.107 -3.354,21.56 -3.906,18.448L-5.128,11.535C-5.696,8.32 -3.49,5.691 -0.227,5.691ZM-0.227,6.758C-2.791,6.758 -4.524,8.824 -4.078,11.349L-2.855,18.262C-2.39,20.89 0.173,23.04 2.841,23.04L22.679,23.04C25.346,23.04 27.909,20.89 28.375,18.262L29.598,11.349C30.043,8.824 28.311,6.758 25.746,6.758L-0.227,6.758Z" style="fill:none;fill-rule:nonzero;stroke:black;stroke-width:0.47px;"/>
        </g>
        <g transform="matrix(1,0,0,1,8,20)">
            <path d="M62.442,22.949L145.554,22.949C153.764,22.949 159.307,29.558 157.881,37.639L153.968,59.76C152.476,68.169 144.275,75.051 135.742,75.051L72.258,75.051C63.722,75.051 55.521,68.169 54.032,59.761L50.119,37.639C48.692,29.558 54.238,22.949 62.442,22.949Z" style="fill:rgb(97,95,185);stroke:black;stroke-width:1.5px;stroke-linecap:round;stroke-linejoin:round;stroke-miterlimit:1.5;"/>
        </g>
        <g>
            <g transform="matrix(1,0,0,1,0.512133,0.20224)">
                <circle cx="78.5" cy="54.35" r="4.6" style="fill:white;stroke:black;stroke-width:1.6px;"/>
            </g>
            <g transform="matrix(1,0,0,1,0.512133,0.20224)">
                <circle cx="126.462" cy="54.35" r="4.6" style="fill:white;stroke:black;stroke-width:1.6px;"/>
            </g>
            <g transform="matrix(1,0,0,1,0.512133,0.20224)">
                <circle cx="142.45" cy="54.35" r="4.6" style="fill:white;stroke:black;stroke-width:1.6px;"/>
            </g>
            <g transform="matrix(1,0,0,1,0.512133,0.20224)">
                <circle cx="110.476" cy="54.35" r="4.6" style="fill:white;stroke:black;stroke-width:1.6px;"/>
            </g>
            <g transform="matrix(1,0,0,1,0.512133,0.20224)">
                <circle cx="94.488" cy="54.35" r="4.6" style="fill:white;stroke:black;stroke-width:1.6px;"/>
            </g>
            <g transform="matrix(1,0,0,1,0.512133,0.20224)">
                <circle cx="78.5" cy="82" r="4.6" style="fill:white;stroke:black;stroke-width:1.6px;"/>
            </g>
            <g transform="matrix(1,0,0,1,0.512133,0.20224)">
                <circle cx="126.462" cy="82" r="4.6" style="fill:white;stroke:black;stroke-width:1.6px;"/>
            </g>
            <g transform="matrix(1,0,0,1,0.512133,0.20224)">
                <circle cx="142.45" cy="82" r="4.6" style="fill:white;stroke:black;stroke-width:1.6px;"/>
            </g>
            <g transform="matrix(1,0,0,1,0.512133,0.20224)">
                <circle cx="110.476" cy="82" r="4.6" style="fill:white;stroke:black;stroke-width:1.6px;"/>
            </g>
            <g transform="matrix(1,0,0,1,0.512133,0.20224)">
                <circle cx="94.488" cy="82" r="4.6" style="fill:white;stroke:black;stroke-width:1.6px;"/>
            </g>
            <g transform="matrix(1,0,0,1,0.512133,0.20224)">
                <circle cx="86.476" cy="68.176" r="4.6" style="fill:white;stroke:black;stroke-width:1.6px;"/>
            </g>
            <g transform="matrix(1,0,0,1,0.512133,0.20224)">
                <circle cx="134.438" cy="68.176" r="4.6" style="fill:white;stroke:black;stroke-width:1.6px;"/>
            </g>
            <g transform="matrix(1,0,0,1,0.512133,0.20224)">
                <circle cx="150.426" cy="68.176" r="4.6" style="fill:white;stroke:black;stroke-width:1.6px;"/>
            </g>
            <g transform="matrix(1,0,0,1,0.512133,0.20224)">
                <circle cx="118.45" cy="68.176" r="4.6" style="fill:white;stroke:black;stroke-width:1.6px;"/>
            </g>
            <g transform="matrix(1,0,0,1,0.512133,0.20224)">
                <circle cx="102.462" cy="68.176" r="4.6" style="fill:white;stroke:black;stroke-width:1.6px;"/>
            </g>
        </g>
        <g transform="matrix(0.776068,0,0,0.776068,0.917289,10.9213)">
            <g id="circle2794" transform="matrix(1.11427,0,0,1.11427,-4.87789,-8.56808)">
                <circle cx="42.688" cy="74.969" r="9.799" style="fill:none;stroke:black;stroke-width:0.52px;stroke-miterlimit:4;"/>
            </g>
            <g transform="matrix(1.7,0,0,1.7,-30.412,-54.231)">
                <circle cx="43" cy="76" r="5" style="stroke:black;stroke-width:0.38px;stroke-linecap:round;stroke-linejoin:round;stroke-miterlimit:1.5;"/>
            </g>
            <g id="path3155" transform="matrix(1.08681,0,0,1.08681,-111.661,-838.212)">
                <path d="M156.985,848.909L142.02,857.549L127.056,848.909L127.056,831.63L142.02,822.99L156.985,831.63L156.985,848.909Z" style="fill-opacity:0;fill-rule:nonzero;stroke:black;stroke-width:1.78px;stroke-linejoin:round;stroke-miterlimit:2;"/>
            </g>
        </g>
        <g transform="matrix(0.776068,0,0,0.776068,156.917,10.7949)">
            <g id="circle27941" serif:id="circle2794" transform="matrix(1.11427,0,0,1.11427,-4.87789,-8.56808)">
                <circle cx="42.688" cy="74.969" r="9.799" style="fill:none;stroke:black;stroke-width:0.52px;stroke-miterlimit:4;"/>
            </g>
            <g transform="matrix(1.7,0,0,1.7,-30.412,-54.231)">
                <circle cx="43" cy="76" r="5" style="stroke:black;stroke-width:0.38px;stroke-linecap:round;stroke-linejoin:round;stroke-miterlimit:1.5;"/>
            </g>
            <g id="path31551" serif:id="path3155" transform="matrix(1.08681,0,0,1.08681,-111.661,-838.212)">
                <path d="M156.985,848.909L142.02,857.549L127.056,848.909L127.056,831.63L142.02,822.99L156.985,831.63L156.985,848.909Z" style="fill-opacity:0;fill-rule:nonzero;stroke:black;stroke-width:1.78px;stroke-linejoin:round;stroke-miterlimit:2;"/>
            </g>
        </g>
    </g>
</svg>
