<?xml version="1.0" encoding="UTF-8" standalone="no"?>
<!DOCTYPE svg PUBLIC "-//W3C//DTD SVG 1.1//EN" "http://www.w3.org/Graphics/SVG/1.1/DTD/svg11.dtd">
<svg width="100%" height="100%" viewBox="0 0 350 120" version="1.1" xmlns="http://www.w3.org/2000/svg" xmlns:xlink="http://www.w3.org/1999/xlink" xml:space="preserve" xmlns:serif="http://www.serif.com/" style="fill-rule:evenodd;clip-rule:evenodd;">
    <g transform="matrix(-1,0,0,1,310.6,-98)">
        <g transform="matrix(-0.776068,0,0,0.776068,316.351,100.22)">
            <g id="circle2794" transform="matrix(1.11427,0,0,1.11427,-4.87789,-8.56808)">
                <circle cx="42.688" cy="74.969" r="9.799" style="fill:none;stroke:black;stroke-width:0.52px;"/>
            </g>
            <g transform="matrix(1.7,0,0,1.7,-30.412,-54.231)">
                <circle cx="43" cy="76" r="5" style="stroke:black;stroke-width:0.38px;stroke-linecap:round;stroke-linejoin:round;stroke-miterlimit:1.5;"/>
            </g>
            <g id="path3155" transform="matrix(1.08681,0,0,1.08681,-111.661,-838.212)">
                <path d="M156.985,848.909L142.02,857.549L127.056,848.909L127.056,831.63L142.02,822.99L156.985,831.63L156.985,848.909Z" style="fill-opacity:0;fill-rule:nonzero;stroke:black;stroke-width:1.78px;stroke-linejoin:round;stroke-miterlimit:2;"/>
            </g>
        </g>
        <g id="b">
        </g>
        <g id="j" transform="matrix(1,0,0,1,5.68434e-14,-104)">
            <g id="e" transform="matrix(1,0,0,1,0,208)">
                <path d="M12.4,26.8L12.4,61.1C12.4,64.9 13.3,71.1 14.5,74.8L16.5,81.5C17.6,85.2 21.7,88.2 25.6,88.2L245.6,88.2C249.5,88.2 253.5,85.2 254.7,81.5L256.7,74.8C257.8,71.1 258.8,65 258.8,61.1L258.8,26.8C258.8,22.9 255.7,19.8 251.8,19.8L19.8,19.8C15.9,19.8 12.8,22.9 12.8,26.8" style="fill:rgb(252,241,227);fill-rule:nonzero;stroke:black;stroke-width:2px;"/>
            </g>
            <g id="g" transform="matrix(1,0,0,1,0,208)">
                <g id="d">
                    <path id="c" d="M86.5,24.9L103.5,24.9L103.5,41.9L86.5,41.9M86.5,65.5L103.5,65.5L103.5,82.5L86.5,82.5M86.5,45.2L103.5,45.2L103.5,62.2L86.5,62.2" style="fill-rule:nonzero;"/>
                    <g id="h">
                        <g id="c1" serif:id="c" transform="matrix(1,0,0,1,20.3,0)">
                            <path d="M86.5,24.9L103.5,24.9L103.5,41.9L86.5,41.9M86.5,65.5L103.5,65.5L103.5,82.5L86.5,82.5M86.5,45.2L103.5,45.2L103.5,62.2L86.5,62.2" style="fill-rule:nonzero;"/>
                        </g>
                        <g id="c2" serif:id="c" transform="matrix(1,0,0,1,40.6,0)">
                            <path d="M86.5,24.9L103.5,24.9L103.5,41.9L86.5,41.9M86.5,65.5L103.5,65.5L103.5,82.5L86.5,82.5M86.5,45.2L103.5,45.2L103.5,62.2L86.5,62.2" style="fill-rule:nonzero;"/>
                        </g>
                    </g>
                </g>
                <g id="d1" serif:id="d" transform="matrix(1,0,0,1,101.5,0)">
                    <path id="c3" serif:id="c" d="M86.5,24.9L103.5,24.9L103.5,41.9L86.5,41.9M86.5,65.5L103.5,65.5L103.5,82.5L86.5,82.5M86.5,45.2L103.5,45.2L103.5,62.2L86.5,62.2" style="fill-rule:nonzero;"/>
                    <g id="h1" serif:id="h">
                        <g id="c4" serif:id="c" transform="matrix(1,0,0,1,20.3,0)">
                            <path d="M86.5,24.9L103.5,24.9L103.5,41.9L86.5,41.9M86.5,65.5L103.5,65.5L103.5,82.5L86.5,82.5M86.5,45.2L103.5,45.2L103.5,62.2L86.5,62.2" style="fill-rule:nonzero;"/>
                        </g>
                        <g id="c5" serif:id="c" transform="matrix(1,0,0,1,40.6,0)">
                            <path d="M86.5,24.9L103.5,24.9L103.5,41.9L86.5,41.9M86.5,65.5L103.5,65.5L103.5,82.5L86.5,82.5M86.5,45.2L103.5,45.2L103.5,62.2L86.5,62.2" style="fill-rule:nonzero;"/>
                        </g>
                    </g>
                </g>
            </g>
            <path d="M32.7,259L60.5,259L60.5,263.5L32.7,263.5" style="fill-rule:nonzero;"/>
        </g>
        <g transform="matrix(-0.776068,0,0,0.776068,21.1074,99.7939)">
            <g id="circle27941" serif:id="circle2794" transform="matrix(1.11427,0,0,1.11427,-4.87789,-8.56808)">
                <circle cx="42.688" cy="74.969" r="9.799" style="fill:none;stroke:black;stroke-width:0.52px;"/>
            </g>
            <g transform="matrix(1.7,0,0,1.7,-30.412,-54.231)">
                <circle cx="43" cy="76" r="5" style="stroke:black;stroke-width:0.38px;stroke-linecap:round;stroke-linejoin:round;stroke-miterlimit:1.5;"/>
            </g>
            <g id="path31551" serif:id="path3155" transform="matrix(1.08681,0,0,1.08681,-111.661,-838.212)">
                <path d="M156.985,848.909L142.02,857.549L127.056,848.909L127.056,831.63L142.02,822.99L156.985,831.63L156.985,848.909Z" style="fill-opacity:0;fill-rule:nonzero;stroke:black;stroke-width:1.78px;stroke-linejoin:round;stroke-miterlimit:2;"/>
            </g>
        </g>
    </g>
</svg>
