<?xml version="1.0" encoding="UTF-8" standalone="no"?>
<!DOCTYPE svg PUBLIC "-//W3C//DTD SVG 1.1//EN" "http://www.w3.org/Graphics/SVG/1.1/DTD/svg11.dtd">
<svg width="100%" height="100%" viewBox="0 0 41 48" version="1.1" xmlns="http://www.w3.org/2000/svg" xmlns:xlink="http://www.w3.org/1999/xlink" xml:space="preserve" xmlns:serif="http://www.serif.com/" style="fill-rule:evenodd;clip-rule:evenodd;stroke-linecap:round;stroke-linejoin:round;">
    <g transform="matrix(4.06544,0,0,4.06544,-2175.14,-741.758)">
        <g id="Calque-1" serif:id="Calque 1">
            <g id="g11036">
                <rect id="rect11034" x="539.29" y="183.084" width="1.348" height="10.474" style="fill:rgb(192,192,192);"/>
                <g id="g14204" transform="matrix(1.25,0,0,-1.25,-26.9193,768.001)">
                    <g id="g14206">
                        <g id="g14212" transform="matrix(1,0,0,1,452.851,459.423)">
                            <path id="path14214" d="M0,0C0.347,-0.067 0.982,-0.067 1.33,0" style="fill:none;fill-rule:nonzero;stroke:black;stroke-width:0.25px;"/>
                        </g>
                        <g id="g14216" transform="matrix(1,0,0,1,454.18,468.064)">
                            <path id="path14218" d="M0,0C-0.347,0.067 -0.982,0.067 -1.33,0" style="fill:none;fill-rule:nonzero;stroke:black;stroke-width:0.25px;"/>
                        </g>
                    </g>
                </g>
                <g id="g14220" transform="matrix(1.25,0,0,-1.25,540.806,183.855)">
                    <path id="path14222" d="M0,0L0,0.748" style="fill:none;fill-rule:nonzero;stroke:black;stroke-width:0.25px;"/>
                </g>
                <g id="g14224" transform="matrix(1.25,0,0,-1.25,539.144,182.92)">
                    <path id="path14226" d="M0,0L0,-0.748" style="fill:none;fill-rule:nonzero;stroke:black;stroke-width:0.25px;"/>
                </g>
                <g id="g14228" transform="matrix(1.25,0,0,-1.25,540.806,193.722)">
                    <path id="path14230" d="M0,0L0,0.748" style="fill:none;fill-rule:nonzero;stroke:black;stroke-width:0.25px;"/>
                </g>
                <g id="g14232" transform="matrix(1.25,0,0,-1.25,539.144,192.786)">
                    <path id="path14234" d="M0,0L0,-0.748" style="fill:none;fill-rule:nonzero;stroke:black;stroke-width:0.25px;"/>
                </g>
                <g id="g60300" transform="matrix(1.25,0,0,-1.25,544.516,188.321)">
                    <path id="path60302" d="M0,0C0,2.006 -1.627,3.632 -3.632,3.632C-5.639,3.632 -7.265,2.006 -7.265,0C-7.265,-2.006 -5.639,-3.632 -3.632,-3.632C-1.627,-3.632 0,-2.006 0,0Z" style="fill:rgb(192,192,192);fill-rule:nonzero;stroke:black;stroke-width:0.25px;"/>
                </g>
                <g id="g60308" transform="matrix(1.25,0,0,-1.25,543.762,188.321)">
                    <path id="path60310" d="M0,0C0,1.673 -1.356,3.029 -3.029,3.029C-4.702,3.029 -6.059,1.673 -6.059,0C-6.059,-1.673 -4.702,-3.029 -3.029,-3.029C-1.356,-3.029 0,-1.673 0,0Z" style="fill:rgb(192,192,192);fill-rule:nonzero;stroke:black;stroke-width:0.25px;"/>
                </g>
                <g id="g60312" transform="matrix(1.25,0,0,-1.25,539.975,193.722)">
                    <path id="path60314" d="M0,0L0.665,0" style="fill:none;fill-rule:nonzero;stroke:black;stroke-width:0.25px;"/>
                </g>
                <g id="g60316" transform="matrix(1.25,0,0,-1.25,539.144,193.722)">
                    <path id="path60318" d="M0,0L0.665,0" style="fill:none;fill-rule:nonzero;stroke:black;stroke-width:0.25px;"/>
                </g>
                <g id="g60320" transform="matrix(1.25,0,0,-1.25,539.975,182.92)">
                    <path id="path60322" d="M0,0L-0.665,0" style="fill:none;fill-rule:nonzero;stroke:black;stroke-width:0.25px;"/>
                </g>
                <g id="g60324" transform="matrix(1.25,0,0,-1.25,540.806,182.92)">
                    <path id="path60326" d="M0,0L-0.665,0" style="fill:none;fill-rule:nonzero;stroke:black;stroke-width:0.25px;"/>
                </g>
                <g id="g60328" transform="matrix(1.07073,0,0,-1.07073,54.3804,684.867)">
                    <g id="g60330">
                        <g id="g60336" transform="matrix(1,0,0,1,455.486,463.744)">
                            <path id="path60338" d="M0,0C0,1.088 -0.882,1.97 -1.97,1.97C-3.059,1.97 -3.94,1.088 -3.94,0C-3.94,-1.088 -3.059,-1.97 -1.97,-1.97C-0.882,-1.97 0,-1.088 0,0Z" style="fill:white;fill-rule:nonzero;stroke:black;stroke-width:0.25px;"/>
                        </g>
                    </g>
                </g>
                <g id="g60448" transform="matrix(1.25,0,0,-1.25,540.76,188.321)">
                    <path id="path60450" d="M0,0C0,0.347 -0.281,0.628 -0.628,0.628C-0.975,0.628 -1.256,0.347 -1.256,0C-1.256,-0.347 -0.975,-0.628 -0.628,-0.628C-0.281,-0.628 0,-0.347 0,0Z" style="fill:rgb(3,0,0);fill-rule:nonzero;stroke:rgb(243,175,63);stroke-width:0.25px;"/>
                </g>
            </g>
        </g>
    </g>
</svg>
